# xmcd CD database file
#
# Track frame offsets:
#	150
#	12102
#	35921
#	53138
#	71973
#	87679
#	106552
#	127688
#	134181
#	148918
#	173573
#
# Disc length: 2552 seconds
#
# Revision: 1
# Processed by: cddbd v1.5.2PL0 Copyright (c) Steve Scherf et al.
# Submitted via: CDex 1.70beta2
#
DISCID=9f09f60b
DTITLE=Muris Varajic - Let It Out
DYEAR=2007
DGENRE=Blues
TTITLE0=Mojo Oro
TTITLE1=Blue Note In A
TTITLE2=Bumps On You
TTITLE3=Where We All Belong
TTITLE4=Gas At Once
TTITLE5=Drunk Funk
TTITLE6=SRV Or What?
TTITLE7=An Old Modern Time
TTITLE8=Put A Smile On Your Face
TTITLE9=The Water
TTITLE10=A Story From Eastern Europe
EXTD=YEAR: 2007
EXTT0=
EXTT1=
EXTT2=
EXTT3=
EXTT4=
EXTT5=
EXTT6=
EXTT7=
EXTT8=
EXTT9=
EXTT10=
PLAYORDER=
